<svg version="1.1" id="Layer_1" xmlns="http://www.w3.org/2000/svg" xmlns:xlink="http://www.w3.org/1999/xlink" x="0px" y="0px"
	 width="100%" viewBox="0 0 512 512" enable-background="new 0 0 512 512" xml:space="preserve">
<path fill="#000000" opacity="1.000000" stroke="none" 
	d="
M380.000000,513.000000 
	C297.979095,513.000000 215.958206,513.000000 133.340851,512.621399 
	C115.766258,508.607758 101.727448,500.456665 91.973534,485.716400 
	C84.748322,474.797516 80.880600,463.037720 80.905640,449.701416 
	C81.083015,355.233795 81.000000,260.765717 81.000000,166.297775 
	C81.000000,164.551697 81.000000,162.805618 81.000000,161.017227 
	C63.719948,162.322556 47.626556,145.569458 48.837547,128.912048 
	C49.680965,117.310654 49.019379,105.598404 48.995075,93.935738 
	C48.964947,79.479027 63.481556,64.980331 77.946411,64.992172 
	C109.102486,65.017662 140.258591,65.000000 171.414688,65.000000 
	C173.187073,65.000000 174.959473,65.000000 177.000000,65.000000 
	C177.000000,52.686031 176.791199,40.881435 177.071091,29.088438 
	C177.268021,20.791126 181.092529,13.895858 187.620163,8.926367 
	C191.717072,5.807381 196.516022,3.610552 201.000000,0.999998 
	C238.020889,1.000000 275.041779,1.000000 312.645020,1.366507 
	C326.372955,4.236262 337.961639,18.845835 337.132660,32.362186 
	C336.474274,43.096996 337.000000,53.904434 337.000000,65.000000 
	C339.085754,65.000000 340.720245,65.000000 342.354736,65.000000 
	C372.678528,65.000000 403.002777,64.923965 433.325653,65.089149 
	C437.457642,65.111656 441.828735,65.687843 445.664062,67.134529 
	C455.930481,71.007034 464.941162,82.235901 464.987793,93.708717 
	C465.040619,106.704414 465.174988,119.703697 464.936920,132.695251 
	C464.784760,140.996872 460.673981,147.512604 454.664551,153.083237 
	C448.552704,158.748764 441.383911,161.385986 433.000000,161.178558 
	C433.000000,163.439087 433.000000,165.255920 433.000000,167.072739 
	C433.000000,261.043182 432.961090,355.013672 433.067810,448.984009 
	C433.077179,457.239716 432.118439,465.190643 428.969482,472.803436 
	C423.078064,487.046356 414.054901,498.683197 399.903656,505.451172 
	C393.524719,508.501923 386.649841,510.515717 380.000000,513.000000 
M113.000000,305.500000 
	C113.000000,351.655731 112.830551,397.812744 113.190628,443.965668 
	C113.242073,450.559204 114.726028,457.663574 117.516914,463.606445 
	C123.568420,476.492279 135.625839,480.839203 148.829697,480.883850 
	C220.978745,481.127808 293.129303,481.085449 365.278564,480.872559 
	C372.782745,480.850403 380.263000,479.310394 386.831024,474.760529 
	C397.568115,467.322632 400.875580,456.337097 400.899139,444.358643 
	C401.081909,351.380615 401.001068,258.402100 400.990143,165.423737 
	C400.989960,163.994537 400.841797,162.565369 400.771545,161.296326 
	C304.645752,161.296326 208.922867,161.296326 113.000000,161.296326 
	C113.000000,209.228256 113.000000,256.864136 113.000000,305.500000 
M95.588966,128.004852 
	C97.825104,128.336563 100.061096,128.957382 102.297394,128.958450 
	C203.110458,129.006424 303.923553,129.013992 404.736603,128.957520 
	C409.639740,128.954773 414.566742,128.537003 419.440338,127.956993 
	C429.089050,126.808708 435.094147,115.654442 430.993958,106.887779 
	C427.146851,98.662361 419.802979,97.043953 411.885803,97.039322 
	C310.239563,96.979797 208.593307,96.988922 106.947075,97.042076 
	C103.043747,97.044121 99.117531,97.496613 95.242485,98.032295 
	C87.407318,99.115410 82.090973,104.730461 82.000000,111.741722 
	C81.880859,120.922768 86.152718,126.382698 95.588966,128.004852 
M244.500504,33.000000 
	C239.174683,33.000008 233.847992,32.938072 228.523254,33.013771 
	C219.301773,33.144867 211.177017,38.210014 210.122940,45.154762 
	C209.149155,51.570316 209.086243,58.124130 208.620377,64.641647 
	C241.278244,64.641647 273.103912,64.641647 304.999176,64.641647 
	C304.999176,59.958344 305.061646,55.631573 304.955170,51.308960 
	C304.928680,50.232372 304.126587,49.180981 304.071228,48.098064 
	C303.522461,37.362152 294.911804,33.239769 284.943481,33.058704 
	C271.799713,32.819962 258.648376,33.000004 244.500504,33.000000 
z"/>
<path fill="#FFFFFF" opacity="1.000000" stroke="none" 
	d="
M380.468658,513.000000 
	C386.649841,510.515717 393.524719,508.501923 399.903656,505.451172 
	C414.054901,498.683197 423.078064,487.046356 428.969482,472.803436 
	C432.118439,465.190643 433.077179,457.239716 433.067810,448.984009 
	C432.961090,355.013672 433.000000,261.043182 433.000000,167.072739 
	C433.000000,165.255920 433.000000,163.439087 433.000000,161.178558 
	C441.383911,161.385986 448.552704,158.748764 454.664551,153.083237 
	C460.673981,147.512604 464.784760,140.996872 464.936920,132.695251 
	C465.174988,119.703697 465.040619,106.704414 464.987793,93.708717 
	C464.941162,82.235901 455.930481,71.007034 445.664062,67.134529 
	C441.828735,65.687843 437.457642,65.111656 433.325653,65.089149 
	C403.002777,64.923965 372.678528,65.000000 342.354736,65.000000 
	C340.720245,65.000000 339.085754,65.000000 337.000000,65.000000 
	C337.000000,53.904434 336.474274,43.096996 337.132660,32.362186 
	C337.961639,18.845835 326.372955,4.236262 313.113647,1.366507 
	C379.632141,1.000000 446.264282,1.000000 512.948242,1.000000 
	C512.948242,171.543762 512.948242,342.087555 512.948242,513.000000 
	C468.979797,513.000000 424.958557,513.000000 380.468658,513.000000 
z"/>
<path fill="#FFFFFF" opacity="1.000000" stroke="none" 
	d="
M200.531342,0.999998 
	C196.516022,3.610552 191.717072,5.807381 187.620163,8.926367 
	C181.092529,13.895858 177.268021,20.791126 177.071091,29.088438 
	C176.791199,40.881435 177.000000,52.686031 177.000000,65.000000 
	C174.959473,65.000000 173.187073,65.000000 171.414688,65.000000 
	C140.258591,65.000000 109.102486,65.017662 77.946411,64.992172 
	C63.481556,64.980331 48.964947,79.479027 48.995075,93.935738 
	C49.019379,105.598404 49.680965,117.310654 48.837547,128.912048 
	C47.626556,145.569458 63.719948,162.322556 81.000000,161.017227 
	C81.000000,162.805618 81.000000,164.551697 81.000000,166.297775 
	C81.000000,260.765717 81.083015,355.233795 80.905640,449.701416 
	C80.880600,463.037720 84.748322,474.797516 91.973534,485.716400 
	C101.727448,500.456665 115.766258,508.607758 132.872192,512.621399 
	C89.022812,513.000000 45.045628,513.000000 1.034221,513.000000 
	C1.034221,342.444641 1.034221,171.889282 1.034221,1.000000 
	C67.353851,1.000000 133.708267,1.000000 200.531342,0.999998 
z"/>
<path fill="#FFFFFF" opacity="1.000000" stroke="none" 
	d="
M113.000000,305.000000 
	C113.000000,256.864136 113.000000,209.228256 113.000000,161.296326 
	C208.922867,161.296326 304.645752,161.296326 400.771545,161.296326 
	C400.841797,162.565369 400.989960,163.994537 400.990143,165.423737 
	C401.001068,258.402100 401.081909,351.380615 400.899139,444.358643 
	C400.875580,456.337097 397.568115,467.322632 386.831024,474.760529 
	C380.263000,479.310394 372.782745,480.850403 365.278564,480.872559 
	C293.129303,481.085449 220.978745,481.127808 148.829697,480.883850 
	C135.625839,480.839203 123.568420,476.492279 117.516914,463.606445 
	C114.726028,457.663574 113.242073,450.559204 113.190628,443.965668 
	C112.830551,397.812744 113.000000,351.655731 113.000000,305.000000 
M193.000000,388.500000 
	C193.000000,339.043762 193.009720,289.587524 192.963058,240.131317 
	C192.961273,238.231964 192.762787,236.193970 192.064850,234.458252 
	C189.105865,227.099609 183.398148,224.562668 175.668198,224.917648 
	C167.360397,225.299179 161.006165,231.162262 161.005035,239.290421 
	C160.996033,304.399475 160.996155,369.508545 161.004608,434.617615 
	C161.005737,443.301025 167.405945,449.000153 177.078705,449.000000 
	C186.706924,448.999847 192.989578,443.275909 192.996674,434.460236 
	C193.008743,419.473480 193.000000,404.486755 193.000000,388.500000 
M241.000000,378.500000 
	C241.000000,396.983643 240.997772,415.467285 241.000946,433.950928 
	C241.002487,442.922394 247.019241,448.989655 255.912430,449.000000 
	C266.805603,449.012665 272.997955,443.631805 272.998413,434.127777 
	C273.001495,369.518280 273.000458,304.908783 272.999512,240.299286 
	C272.999390,230.925156 267.129333,225.004990 257.838196,225.000000 
	C247.010941,224.994186 241.001175,230.386978 241.000793,240.121552 
	C240.998978,285.914368 241.000000,331.707184 241.000000,378.500000 
M353.000000,349.500000 
	C353.000000,313.698364 353.000000,277.896759 353.000000,242.095139 
	C353.000000,230.038910 347.855347,224.973480 335.637573,225.000000 
	C327.334442,225.018021 321.005798,231.182175 321.004761,239.324844 
	C320.996277,304.433899 320.995758,369.542969 321.004974,434.652039 
	C321.006226,443.495544 327.414307,449.003113 337.612701,448.999969 
	C346.776917,448.997131 352.994232,443.124542 352.996857,434.425751 
	C353.005310,406.450500 353.000000,378.475250 353.000000,349.500000 
z"/>
<path fill="#FFFFFF" opacity="1.000000" stroke="none" 
	d="
M95.154846,128.002594 
	C86.152718,126.382698 81.880859,120.922768 82.000000,111.741722 
	C82.090973,104.730461 87.407318,99.115410 95.242485,98.032295 
	C99.117531,97.496613 103.043747,97.044121 106.947075,97.042076 
	C208.593307,96.988922 310.239563,96.979797 411.885803,97.039322 
	C419.802979,97.043953 427.146851,98.662361 430.993958,106.887779 
	C435.094147,115.654442 429.089050,126.808708 419.440338,127.956993 
	C414.566742,128.537003 409.639740,128.954773 404.736603,128.957520 
	C303.923553,129.013992 203.110458,129.006424 102.297394,128.958450 
	C100.061096,128.957382 97.825104,128.336563 95.154846,128.002594 
z"/>
<path fill="#FFFFFF" opacity="1.000000" stroke="none" 
	d="
M245.000397,33.000000 
	C258.648376,33.000004 271.799713,32.819962 284.943481,33.058704 
	C294.911804,33.239769 303.522461,37.362152 304.071228,48.098064 
	C304.126587,49.180981 304.928680,50.232372 304.955170,51.308960 
	C305.061646,55.631573 304.999176,59.958344 304.999176,64.641647 
	C273.103912,64.641647 241.278244,64.641647 208.620377,64.641647 
	C209.086243,58.124130 209.149155,51.570316 210.122940,45.154762 
	C211.177017,38.210014 219.301773,33.144867 228.523254,33.013771 
	C233.847992,32.938072 239.174683,33.000008 245.000397,33.000000 
z"/>
<path fill="#000000" opacity="1.000000" stroke="none" 
	d="
M193.000000,389.000000 
	C193.000000,404.486755 193.008743,419.473480 192.996674,434.460236 
	C192.989578,443.275909 186.706924,448.999847 177.078705,449.000000 
	C167.405945,449.000153 161.005737,443.301025 161.004608,434.617615 
	C160.996155,369.508545 160.996033,304.399475 161.005035,239.290421 
	C161.006165,231.162262 167.360397,225.299179 175.668198,224.917648 
	C183.398148,224.562668 189.105865,227.099609 192.064850,234.458252 
	C192.762787,236.193970 192.961273,238.231964 192.963058,240.131317 
	C193.009720,289.587524 193.000000,339.043762 193.000000,389.000000 
z"/>
<path fill="#000000" opacity="1.000000" stroke="none" 
	d="
M241.000000,378.000000 
	C241.000000,331.707184 240.998978,285.914368 241.000793,240.121552 
	C241.001175,230.386978 247.010941,224.994186 257.838196,225.000000 
	C267.129333,225.004990 272.999390,230.925156 272.999512,240.299286 
	C273.000458,304.908783 273.001495,369.518280 272.998413,434.127777 
	C272.997955,443.631805 266.805603,449.012665 255.912430,449.000000 
	C247.019241,448.989655 241.002487,442.922394 241.000946,433.950928 
	C240.997772,415.467285 241.000000,396.983643 241.000000,378.000000 
z"/>
<path fill="#000000" opacity="1.000000" stroke="none" 
	d="
M353.000000,350.000000 
	C353.000000,378.475250 353.005310,406.450500 352.996857,434.425751 
	C352.994232,443.124542 346.776917,448.997131 337.612701,448.999969 
	C327.414307,449.003113 321.006226,443.495544 321.004974,434.652039 
	C320.995758,369.542969 320.996277,304.433899 321.004761,239.324844 
	C321.005798,231.182175 327.334442,225.018021 335.637573,225.000000 
	C347.855347,224.973480 353.000000,230.038910 353.000000,242.095139 
	C353.000000,277.896759 353.000000,313.698364 353.000000,350.000000 
z"/>
</svg>